<svg id="Layer_1" data-name="Layer 1" xmlns="http://www.w3.org/2000/svg" viewBox="0 0 1679.69 337.08"><defs><style>.cls-2{isolation:isolate}.cls-3{fill:#3a3a3a}</style></defs><g id="CHRISTOPHER_WARD" data-name="CHRISTOPHER WARD" style="isolation:isolate;opacity:.2"><g class="cls-2"><path class="cls-3" d="M45.21 149.93A76.39 76.39 0 0 1 15 121.44Q4 103.19 4 80.08t11-41.36a76.46 76.46 0 0 1 30.21-28.49Q64.46 0 88.66 0q21.12 0 38.06 7.48A73.35 73.35 0 0 1 154.88 29l-27.72 25.12q-15-18-36.3-18a44.85 44.85 0 0 0-22.33 5.5 38.17 38.17 0 0 0-15.18 15.47 47.69 47.69 0 0 0-5.39 23 47.63 47.63 0 0 0 5.39 23 38.05 38.05 0 0 0 15.18 15.51 44.75 44.75 0 0 0 22.33 5.5q21.33 0 36.3-18l27.72 25.08a73.16 73.16 0 0 1-28.16 21.56q-16.95 7.47-38.06 7.48-24.21-.06-43.45-10.29ZM320.76 3.08v154H277.2V97h-59.4v60.06h-43.56V3.08h43.56v57.86h59.4V3.08ZM418.88 116.16h-23.76v40.92h-43.56v-154H422q20.9 0 36.3 6.93t23.7 19.8q8.36 12.87 8.36 30.25 0 16.72-7.81 29.15t-22.33 19.47l33.22 48.4h-46.62Zm20.68-72.82q-6.82-5.94-20.24-5.94h-24.2v45.1h24.2q13.41 0 20.24-5.83t6.82-16.61q0-10.77-6.82-16.72ZM514.36 3.08h43.56v154h-43.56ZM606.75 155.54q-17.6-4.62-28.6-12.32l14.3-32.12a92.36 92.36 0 0 0 24 11 91.21 91.21 0 0 0 26.84 4.18q25.08 0 25.08-12.54 0-6.6-7.15-9.79t-23-6.71a219.5 219.5 0 0 1-29-8 48.91 48.91 0 0 1-20-13.75q-8.42-9.49-8.43-25.55a44.23 44.23 0 0 1 7.7-25.41q7.71-11.32 23-17.93T649 0a132.46 132.46 0 0 1 29.92 3.41 91.79 91.79 0 0 1 26 10l-13.47 32.35q-22-11.88-42.68-11.88-13 0-18.92 3.85t-5.94 10q0 6.16 7 9.24t22.66 6.38a213 213 0 0 1 29.15 8 50.32 50.32 0 0 1 20 13.64q8.47 9.36 8.47 25.41a43.27 43.27 0 0 1-7.7 25.08q-7.69 11.22-23.1 17.93t-37.4 6.71a142.45 142.45 0 0 1-36.24-4.58ZM761.85 37.62h-47.3V3.08h137.94v34.54h-47.08v119.46h-43.56ZM900.34 149.82a77.64 77.64 0 0 1-30.58-28.6Q858.65 103 858.65 80.08t11.11-41.14a77.78 77.78 0 0 1 30.58-28.6Q919.81 0 944.23 0t43.89 10.34a77.78 77.78 0 0 1 30.58 28.6q11.11 18.27 11.11 41.14t-11.11 41.14a77.64 77.64 0 0 1-30.58 28.6q-19.47 10.35-43.89 10.34t-43.89-10.34Zm65-31.24a39.4 39.4 0 0 0 15-15.51 46.9 46.9 0 0 0 5.5-23 47 47 0 0 0-5.5-23 39.54 39.54 0 0 0-15-15.51 43.3 43.3 0 0 0-42.24 0 39.61 39.61 0 0 0-15 15.51 47 47 0 0 0-5.5 23 46.9 46.9 0 0 0 5.5 23 39.47 39.47 0 0 0 15 15.51 43.3 43.3 0 0 0 42.24 0ZM1159.39 10q15.4 6.93 23.76 19.8t8.36 30.25q0 17.39-8.36 30.14t-23.76 19.69q-15.41 6.93-36.3 6.93h-26.84v40.26h-43.56V3.08h70.4q20.91 0 36.3 6.92Zm-18.7 66.66q6.82-5.82 6.82-16.61t-6.82-16.72q-6.82-5.94-20.24-5.94h-24.2V82.5h24.2q13.43 0 20.24-5.83ZM1359.15 3.08v154h-43.56V97h-59.4v60.06h-43.56V3.08h43.56v57.86h59.4V3.08ZM1513.59 123.42v33.66H1390v-154h120.78v33.66h-77.66v26h68.42v32.52h-68.42v28.16ZM1605.11 116.16h-23.76v40.92h-43.56v-154h70.4q20.89 0 36.3 6.93t23.76 19.8q8.36 12.87 8.36 30.25 0 16.72-7.81 29.15t-22.33 19.47l33.22 48.4h-46.64Zm20.68-72.82q-6.82-5.94-20.24-5.94h-24.2v45.1h24.2q13.42 0 20.24-5.83t6.82-16.61q0-10.77-6.82-16.72Z"/></g><g class="cls-2"><path class="cls-3" d="m253.44 183.08-49.94 154h-46.64l-29.48-93.72-30.8 93.72H49.94L0 183.08h44.88l31 98.34 32.56-98.34h40l31 99.22 32.34-99.22ZM367 307.16h-65.16l-12.1 29.92H245.3l68-154h42.9l68.2 154h-45.34ZM354.2 275l-19.8-49.28L314.6 275ZM504 296.16h-23.74v40.92H436.7v-154h70.4q20.89 0 36.3 6.93t23.76 19.8q8.36 12.87 8.36 30.25 0 16.73-7.81 29.15t-22.33 19.47l33.22 48.4H532Zm20.68-72.82q-6.83-5.94-20.24-5.94h-24.2v45.1h24.2q13.41 0 20.24-5.83t6.82-16.61q.02-10.77-6.8-16.72ZM599.5 183.08h72.82q25.29 0 44.88 9.46t30.36 26.84q10.77 17.38 10.78 40.7t-10.78 40.7q-10.78 17.39-30.36 26.84t-44.88 9.46H599.5Zm71.06 119.24q19.8 0 31.79-11.22t12-31q0-19.8-12-31t-31.79-11.22h-27.5v84.48Z"/></g></g></svg>